<svg width="33" height="33" viewBox="0 0 33 33" fill="none" xmlns="http://www.w3.org/2000/svg">
<g id="Icon/brand-instagram" clip-path="url(#clip0_14_29)">
<path id="Vector" d="M5.83334 10.8702C5.83334 9.45571 6.39525 8.09916 7.39544 7.09896C8.39563 6.09877 9.75219 5.53687 11.1667 5.53687H21.8333C23.2478 5.53687 24.6044 6.09877 25.6046 7.09896C26.6048 8.09916 27.1667 9.45571 27.1667 10.8702V21.5369C27.1667 22.9514 26.6048 24.3079 25.6046 25.3081C24.6044 26.3083 23.2478 26.8702 21.8333 26.8702H11.1667C9.75219 26.8702 8.39563 26.3083 7.39544 25.3081C6.39525 24.3079 5.83334 22.9514 5.83334 21.5369V10.8702Z" stroke="#46515E" stroke-width="2" stroke-linecap="round" stroke-linejoin="round"/>
<path id="Vector_2" d="M12.5 16.2035C12.5 17.2644 12.9214 18.2818 13.6716 19.0319C14.4217 19.7821 15.4391 20.2035 16.5 20.2035C17.5609 20.2035 18.5783 19.7821 19.3284 19.0319C20.0786 18.2818 20.5 17.2644 20.5 16.2035C20.5 15.1427 20.0786 14.1252 19.3284 13.3751C18.5783 12.6249 17.5609 12.2035 16.5 12.2035C15.4391 12.2035 14.4217 12.6249 13.6716 13.3751C12.9214 14.1252 12.5 15.1427 12.5 16.2035Z" stroke="#46515E" stroke-width="2" stroke-linecap="round" stroke-linejoin="round"/>
<path id="Vector_3" d="M22.5 10.2035V10.2169" stroke="#46515E" stroke-width="2" stroke-linecap="round" stroke-linejoin="round"/>
</g>
<defs>
<clipPath id="clip0_14_29">
<rect width="32" height="32" fill="white" transform="translate(0.5 0.203522)"/>
</clipPath>
</defs>
</svg>
