<svg width="192" height="110" viewBox="0 0 192 110" fill="none" xmlns="http://www.w3.org/2000/svg">
<mask id="mask0_1_72" style="mask-type:alpha" maskUnits="userSpaceOnUse" x="42" y="0" width="109" height="109">
<circle cx="96.0066" cy="54.7611" r="54" fill="#D9D9D9"/>
</mask>
<g mask="url(#mask0_1_72)">
<g filter="url(#filter0_f_1_72)">
<rect width="191.987" height="109.493" transform="translate(-41.9803 -0.731476)" fill="white"/>
<circle cx="-18.5318" cy="27.4086" r="178.572" fill="#350E73"/>
<circle cx="11.0901" cy="-1.74323" r="66.1765" fill="#1343EB"/>
<circle cx="121.174" cy="56.0335" r="66.1765" fill="#1343EB"/>
<ellipse cx="103.79" cy="3.29882" rx="75.1576" ry="46.0747" fill="#7F13EB"/>
<ellipse cx="72.5397" cy="98.9535" rx="48.6345" ry="46.0747" fill="#7F13EB" fill-opacity="0.5"/>
<path d="M246.279 106.048C246.279 146.308 216.651 178.946 180.103 178.946C143.554 178.946 113.926 146.308 113.926 106.048C113.926 65.7881 143.554 33.1508 180.103 33.1508C216.651 33.1508 246.279 65.7881 246.279 106.048Z" fill="#7B16EC"/>
</g>
</g>
<defs>
<filter id="filter0_f_1_72" x="-251.648" y="-205.707" width="552.471" height="466.232" filterUnits="userSpaceOnUse" color-interpolation-filters="sRGB">
<feFlood flood-opacity="0" result="BackgroundImageFix"/>
<feBlend mode="normal" in="SourceGraphic" in2="BackgroundImageFix" result="shape"/>
<feGaussianBlur stdDeviation="27.2722" result="effect1_foregroundBlur_1_72"/>
</filter>
</defs>
</svg>
